<?xml version="1.0" encoding="UTF-8"?>
<svg version="1.1" xmlns="http://www.w3.org/2000/svg" width="1858" height="1314">
<path d="M0 0 C613.14 0 1226.28 0 1858 0 C1858 433.62 1858 867.24 1858 1314 C1244.86 1314 631.72 1314 0 1314 C0 880.38 0 446.76 0 0 Z " fill="#FEFEFE" transform="translate(0,0)"/>
<path d="M0 0 C2.03581935 1.28463073 4.05616806 2.57213778 6.04418945 3.92993164 C6.81110107 4.45321045 7.5780127 4.97648926 8.36816406 5.515625 C9.18293213 6.07644775 9.9977002 6.63727051 10.8371582 7.21508789 C11.68737549 7.79846924 12.53759277 8.38185059 13.41357422 8.98291016 C19.10243833 12.90477456 24.70344626 16.92744059 30.25292969 21.04321289 C37.91572524 26.71016011 45.75950152 32.11992623 53.57739258 37.56958008 C63.07918913 44.20112125 72.52537784 50.90454812 81.8996582 57.71508789 C88.03973214 62.17352364 94.24705985 66.51513196 100.5246582 70.77758789 C107.56071825 75.55503529 114.49263169 80.45464811 121.37158203 85.45532227 C128.51545038 90.64742175 135.72704703 95.74064643 142.95507812 100.81469727 C143.63803955 101.29745117 144.32100098 101.78020508 145.0246582 102.27758789 C146.20595306 102.82569626 147.38724792 103.37380463 148.6043396 103.93852234 C151.30123091 105.89618744 151.94842263 106.92513962 152.66226292 110.22532845 C152.89005451 114.21480471 152.89079426 118.17328819 152.81933594 122.16552734 C152.8173607 123.7031902 152.81847115 125.24085966 152.82243347 126.77851868 C152.82444124 130.94809064 152.78330079 135.11625183 152.73441577 139.285496 C152.69064362 143.64429325 152.68654367 148.0031232 152.67823792 152.36210632 C152.65648468 160.614172 152.5990468 168.8655882 152.52879149 177.11736792 C152.45053787 186.51261829 152.41205904 195.90789976 152.37692344 205.30339491 C152.30376362 224.62849408 152.1806466 243.95298876 152.0246582 263.27758789 C152.97307587 263.58992119 153.92149353 263.90225449 154.89865112 264.22405243 C157.32130906 265.04054324 159.547826 265.89805507 161.8449707 266.99829102 C162.53506729 267.32658401 163.22516388 267.65487701 163.93617249 267.99311829 C164.66662277 268.34480576 165.39707306 268.69649323 166.1496582 269.05883789 C166.92550766 269.42869308 167.70135712 269.79854828 168.50071716 270.17961121 C170.15519953 270.96852826 171.80898576 271.75890663 173.46212769 272.55062866 C177.761808 274.60934851 182.0669516 276.65656567 186.37231445 278.70336914 C187.21584976 279.10457474 188.05938507 279.50578033 188.92848206 279.91914368 C197.84927048 284.15557004 206.83677348 288.2364726 215.84204102 292.28979492 C221.59649585 294.89410412 227.3098279 297.58772561 233.0246582 300.27758789 C233.69803223 300.594375 234.37140625 300.91116211 235.06518555 301.23754883 C237.94333073 302.59173695 240.82134911 303.94619149 243.69873047 305.30200195 C248.21848214 307.43099299 252.74452492 309.54577918 257.2746582 311.65258789 C266.88081064 316.14578822 276.44978031 320.71812223 286.0246582 325.27758789 C286.0246582 349.69758789 286.0246582 374.11758789 286.0246582 399.27758789 C291.51364162 398.66770084 296.12335115 398.14523025 301.3371582 396.84008789 C308.68154024 395.08289544 316.05017393 393.84093555 323.5246582 392.78149414 C324.6796582 392.61520508 325.8346582 392.44891602 327.0246582 392.27758789 C328.0765332 392.13321289 329.1284082 391.98883789 330.2121582 391.84008789 C332.87189238 391.30814105 334.63986496 390.5032386 337.0246582 389.27758789 C352.82246066 385.21529583 371.42827212 385.78840912 387.0246582 390.27758789 C387.77972656 390.4927002 388.53479492 390.7078125 389.31274414 390.92944336 C411.98816295 397.57506451 432.98306068 408.55432151 453.95336914 419.26245117 C464.88168448 424.83842252 475.98090576 430.03167283 487.1159668 435.17895508 C488.05727951 435.61517685 488.05727951 435.61517685 489.01760864 436.06021118 C490.73183683 436.85436904 492.44705806 437.64638239 494.16235352 438.43823242 C499.48725754 440.9741254 504.74940609 443.63996184 510.0246582 446.27758789 C510.0246582 496.76758789 510.0246582 547.25758789 510.0246582 599.27758789 C512.9946582 599.93758789 515.9646582 600.59758789 519.0246582 601.27758789 C520.70697973 601.7719832 522.38174887 602.2944065 524.0402832 602.86352539 C524.89195068 603.15235596 525.74361816 603.44118652 526.62109375 603.73876953 C527.49677002 604.04032959 528.37244629 604.34188965 529.2746582 604.65258789 C531.14015397 605.28524841 533.00603851 605.91676377 534.87231445 606.54711914 C535.76321777 606.84827637 536.65412109 607.14943359 537.57202148 607.4597168 C540.60392717 608.47075443 543.65259707 609.41637326 546.7121582 610.34008789 C551.84962864 611.89265678 556.93788924 613.56810861 562.0246582 615.27758789 C568.19964186 617.35109456 574.38980424 619.34334923 580.62231445 621.23852539 C596.49752076 626.08675143 612.27496903 631.25233811 628.06965637 636.35508728 C638.2248436 639.63518254 648.38618089 642.89616501 658.54663086 646.15991211 C662.1059965 647.30372622 665.66498457 648.44870845 669.22387695 649.59399414 C683.48241724 654.18175116 697.74754403 658.7479455 712.0246582 663.27758789 C711.6946582 664.92758789 711.3646582 666.57758789 711.0246582 668.27758789 C702.28191405 668.5020678 693.87679797 667.83982744 685.2121582 666.71508789 C683.79907284 666.53775716 682.38590154 666.36111022 680.97265625 666.18505859 C672.98158929 665.18445632 664.99549433 664.14483478 657.0085144 663.11222839 C596.50306479 655.29495921 536.01893325 648.64875524 475.17866516 644.04876709 C464.556894 643.24469001 453.9369254 642.41847847 443.31750488 641.58398438 C440.17729455 641.33734967 437.03701542 641.09160488 433.89672852 640.84594727 C423.65004944 640.04302784 413.4043214 639.22980481 403.16017151 638.39518738 C370.03444269 635.69640385 336.90287669 633.24790472 303.73925781 631.06494141 C300.82656543 630.87300457 297.91388809 630.68084114 295.0012207 630.48852539 C293.91438146 630.41685591 293.91438146 630.41685591 292.80558586 630.34373856 C281.78538499 629.61530393 270.77036785 628.82748013 259.75640869 628.01037788 C236.39607155 626.27814979 213.02787575 624.68668148 189.6496582 623.21508789 C188.08870989 623.11679373 188.08870989 623.11679373 186.49622726 623.01651382 C157.53709153 621.20026611 128.59575165 619.67498162 99.5871582 618.96508789 C98.90488411 618.94814251 98.22261002 618.93119713 97.51966095 618.91373825 C89.05575349 618.70573294 80.59156537 618.54636562 72.1262455 618.41109562 C67.28705324 618.33344056 62.44806689 618.24902498 57.60913086 618.15667725 C10.56995205 617.26102 -36.46485131 617.05903041 -83.511841 617.03876561 C-93.14066904 617.03453703 -102.76939803 617.02235032 -112.39819336 616.99633789 C-162.8089382 616.86311106 -213.08434501 617.36838144 -263.44834924 619.63086438 C-279.23465704 620.33804169 -295.02568149 620.74636109 -310.82283205 621.12300479 C-321.21009141 621.37446337 -331.59289975 621.75208601 -341.9753418 622.15258789 C-343.0553244 622.1939386 -344.13530701 622.23528931 -345.24801636 622.27789307 C-453.77328318 626.46194808 -561.92303902 635.17014997 -683.23779297 648.24780273 C-698.16172974 649.88338817 -713.09414152 651.39648383 -728.0378418 652.84008789 C-751.18969504 655.08041035 -774.32377167 657.46280405 -797.44500732 660.00018311 C-799.80474541 660.25888512 -802.16467945 660.51572141 -804.5246582 660.7722168 C-818.50563212 662.29832096 -832.44293637 664.03105397 -846.36206055 666.04711914 C-847.99053925 666.28265503 -847.99053925 666.28265503 -849.6519165 666.52294922 C-855.03305484 667.30373132 -860.41228738 668.09539136 -865.78930664 668.90405273 C-877.18874116 670.59673149 -888.45463281 671.87047167 -899.9753418 672.27758789 C-897.79538553 670.09763162 -896.40845146 669.54451285 -893.54174805 668.50024414 C-892.60073242 668.15727295 -891.6597168 667.81430176 -890.69018555 667.4609375 C-889.64991211 667.09105713 -888.60963867 666.72117676 -887.5378418 666.34008789 C-885.8981543 665.75336304 -885.8981543 665.75336304 -884.2253418 665.15478516 C-871.01112407 660.49304182 -857.62587615 656.37260782 -844.24330139 652.22607422 C-837.76694143 650.21811323 -831.30589931 648.16396097 -824.8503418 646.09008789 C-823.86283936 645.77305908 -822.87533691 645.45603027 -821.85791016 645.12939453 C-819.8951993 644.49914249 -817.93255224 643.86869175 -815.9699707 643.23803711 C-812.82059798 642.22795784 -809.66965144 641.22291525 -806.51831055 640.21899414 C-796.32606189 636.97016709 -786.1485679 633.68901725 -776.0078125 630.28271484 C-770.94865847 628.58819741 -765.86645346 626.98943854 -760.76049805 625.44091797 C-756.29193078 624.06754832 -751.83603606 622.65692603 -747.3815918 621.23852539 C-746.43471497 620.93716171 -745.48783813 620.63579803 -744.51226807 620.32530212 C-736.55123483 617.78762581 -728.59851798 615.22447622 -720.6472168 612.65649414 C-718.17586725 611.85895378 -715.70451305 611.06142783 -713.2331543 610.26391602 C-709.4361367 609.038551 -705.63933246 607.81254494 -701.84350586 606.58349609 C-698.11242304 605.37551406 -694.37985525 604.17216108 -690.6472168 602.96899414 C-689.50162292 602.59722549 -688.35602905 602.22545685 -687.17572021 601.84242249 C-686.12571838 601.50464279 -685.07571655 601.1668631 -683.99389648 600.81884766 C-683.06986023 600.52019302 -682.14582397 600.22153839 -681.19378662 599.91383362 C-678.9753418 599.27758789 -678.9753418 599.27758789 -676.9753418 599.27758789 C-676.99101228 598.35913401 -677.00668276 597.44068012 -677.0228281 596.4943943 C-677.39857816 574.12639658 -677.67972471 551.758944 -677.85614872 529.38845253 C-677.94374015 518.56990722 -678.06310164 507.7534707 -678.2578125 496.9362793 C-678.42748403 487.50564008 -678.53698101 478.07652788 -678.57484621 468.64440477 C-678.59697779 463.65106442 -678.64879717 458.66209145 -678.77275276 453.67015457 C-678.88862351 448.96546204 -678.92366161 444.26690841 -678.89817238 439.56092453 C-678.90283016 437.83934811 -678.93640977 436.11755589 -679.00183487 434.3972168 C-679.38461582 423.80802546 -679.38461582 423.80802546 -676.9753418 419.27758789 C-672.77707192 415.07635995 -667.43215849 412.62420534 -662.06576049 410.23735023 C-659.053135 408.8541802 -656.27557828 407.18588919 -653.4362793 405.47680664 C-651.40825181 404.30516275 -649.37960036 403.13459828 -647.3503418 401.96508789 C-646.24698486 401.32901611 -645.14362793 400.69294434 -644.00683594 400.03759766 C-633.99908933 394.2768209 -623.95789394 388.5768061 -613.89233398 382.91772461 C-611.90544525 381.80055701 -609.91913999 380.68235121 -607.93334961 379.56323242 C-601.68237822 376.04079727 -595.42200803 372.53593421 -589.15112305 369.04907227 C-586.99702943 367.84749606 -584.84607747 366.64027364 -582.69799805 365.42797852 C-579.48488934 363.61511278 -576.26247297 361.81985894 -573.0378418 360.02758789 C-572.07370361 359.47844727 -571.10956543 358.92930664 -570.11621094 358.36352539 C-547.46041558 345.88016433 -519.89894096 353.5240526 -495.9753418 358.27758789 C-496.01087158 357.63580597 -496.04640137 356.99402405 -496.08300781 356.33279419 C-496.43859043 349.61761052 -496.6788697 342.90511333 -496.85424805 336.18286133 C-496.93443911 333.67947748 -497.04343907 331.17683699 -497.18237305 328.67602539 C-498.27729261 308.45221704 -498.27729261 308.45221704 -494.46203613 303.19058228 C-490.76301946 299.85567369 -486.61928762 297.87360544 -482.00169373 296.10456848 C-478.84321192 294.81555096 -476.10784378 293.03487113 -473.2253418 291.21508789 C-471.98480786 290.47361411 -470.74397904 289.73263316 -469.50268555 288.99243164 C-463.58041357 285.44948486 -457.68568454 281.86098463 -451.7878418 278.27758789 C-450.58089288 277.54443203 -449.373943 276.81127775 -448.16699219 276.078125 C-444.43620333 273.81167209 -440.70574488 271.54467568 -436.9753418 269.27758789 C-432.03814342 266.27709119 -427.10068148 263.27702909 -422.1628418 260.27758789 C-421.56789917 259.91612671 -420.97295654 259.55466553 -420.35998535 259.18225098 C-409.50268872 252.5865717 -409.50268872 252.5865717 -404.6237793 249.66821289 C-404.01147461 249.30187744 -403.39916992 248.93554199 -402.76831055 248.55810547 C-401.07769665 247.551322 -399.38204111 246.55301989 -397.6862793 245.55493164 C-394.64288898 243.72906833 -391.70687604 241.76547339 -388.7644043 239.78149414 C-387.37596313 238.8673877 -387.37596313 238.8673877 -385.95947266 237.93481445 C-384.14188399 236.73588822 -382.33940131 235.51362557 -380.55566406 234.26489258 C-376.24476699 231.45262642 -373.26100737 229.735812 -368.06518555 230.68383789 C-366.35597951 231.17306413 -364.65900716 231.70662506 -362.9753418 232.27758789 C-362.07033936 232.54982178 -361.16533691 232.82205566 -360.23291016 233.10253906 C-357.25615813 234.01277295 -354.304191 234.9832048 -351.3503418 235.96508789 C-336.8958499 240.67631665 -322.33779869 244.96839077 -307.6862793 249.02368164 C-306.62666992 249.31750732 -305.56706055 249.61133301 -304.4753418 249.9140625 C-302.51040464 250.4570299 -300.544402 250.99617068 -298.5769043 251.52978516 C-287.92455937 254.46414571 -277.53616524 257.91732589 -266.9753418 261.27758789 C-266.9753418 320.67758789 -266.9753418 380.07758789 -266.9753418 441.27758789 C-247.84260026 436.30234606 -247.84260026 436.30234606 -228.87768555 430.82446289 C-222.99075025 429.06741386 -217.07617881 427.56006467 -211.09399414 426.1706543 C-210.31070236 425.98759232 -209.52741058 425.80453033 -208.72038269 425.61592102 C-206.8056487 425.16861127 -204.89053389 424.72293214 -202.9753418 424.27758789 C-202.98445508 423.32157549 -202.98445508 423.32157549 -202.99375248 422.3462497 C-203.35191299 384.56020389 -203.62638054 346.7744094 -203.79238707 308.98701329 C-203.81239803 304.44845197 -203.83310722 299.90989408 -203.85424805 295.37133789 C-203.85844501 294.46780472 -203.86264198 293.56427155 -203.86696613 292.63335858 C-203.93656148 278.00906302 -204.06269766 263.38577522 -204.20978653 248.76207723 C-204.35948827 233.75326714 -204.44829757 218.74498427 -204.48075771 203.73545825 C-204.50269814 194.47534173 -204.57194205 185.21807342 -204.70200527 175.95883398 C-204.78668061 169.60662572 -204.812124 163.25588637 -204.79136384 156.90315492 C-204.78112568 153.23828218 -204.79663054 149.57837744 -204.88262939 145.91439247 C-205.35982149 124.53982991 -205.35982149 124.53982991 -201.42664719 119.15879583 C-197.73406753 115.77818869 -193.65835051 113.7977295 -188.99526691 112.07917857 C-185.82692505 110.82184814 -183.10004556 109.0385148 -180.2253418 107.21508789 C-178.98480786 106.47361411 -177.74397904 105.73263316 -176.50268555 104.99243164 C-170.58041334 101.44948472 -164.68569982 97.8609598 -158.7878418 94.27758789 C-157.57723173 93.54223318 -156.36661973 92.80688165 -155.15600586 92.0715332 C-150.19992971 89.06081583 -145.24444094 86.04913245 -140.28930664 83.03686523 C-136.68494785 80.84578523 -133.08031487 78.65515709 -129.4753418 76.46508789 C-128.88612946 76.10713135 -128.29691711 75.7491748 -127.68984985 75.38037109 C-119.67951022 70.51504584 -111.65372148 65.67640317 -103.61206055 60.86303711 C-96.5503317 56.63198915 -89.51098323 52.36431937 -82.4753418 48.09008789 C-81.8863208 47.73226227 -81.2972998 47.37443665 -80.69042969 47.00576782 C-76.45161196 44.43045641 -72.21341205 41.85412914 -67.9753418 39.27758789 C-63.14242203 36.33940698 -58.30922226 33.40168807 -53.4753418 30.46508789 C-52.88899963 30.10885345 -52.30265747 29.75261902 -51.69854736 29.3855896 C-43.47101486 24.38793011 -35.2369618 19.40122805 -26.96166992 14.48291016 C-22.89483669 12.06005264 -18.87224202 9.58657252 -14.8894043 7.02758789 C-14.0639209 6.50342285 -13.2384375 5.97925781 -12.38793945 5.43920898 C-10.81906645 4.43996929 -9.25827414 3.42788756 -7.70727539 2.40112305 C-7.0119873 1.96074707 -6.31669922 1.52037109 -5.6003418 1.06665039 C-4.69155273 0.47424561 -4.69155273 0.47424561 -3.7644043 -0.13012695 C-1.9753418 -0.72241211 -1.9753418 -0.72241211 0 0 Z " fill="#0A2C48" transform="translate(1019.975341796875,79.722412109375)"/>
<path d="M0 0 C6.74923284 2.24974428 6.74923284 2.24974428 9.72509766 3.6730957 C10.39614532 3.99186172 11.06719299 4.31062775 11.75857544 4.63905334 C12.46988617 4.98117355 13.1811969 5.32329376 13.9140625 5.67578125 C14.67282684 6.03711655 15.43159119 6.39845184 16.21334839 6.77073669 C17.83978983 7.54560311 19.46551237 8.32197998 21.09057617 9.09973145 C25.39283638 11.15844232 29.70063217 13.20551454 34.0078125 15.25390625 C35.29797272 15.86798843 35.29797272 15.86798843 36.61419678 16.49447632 C43.89023401 19.95511104 51.18770814 23.36665307 58.5 26.75 C59.61084961 27.2641748 60.72169922 27.77834961 61.86621094 28.30810547 C64.10248368 29.34305587 66.33881162 30.37788703 68.57519531 31.41259766 C74.68061451 34.24246903 80.77770425 37.09018164 86.875 39.9375 C88.13346148 40.52506953 89.39192502 41.11263463 90.65039062 41.70019531 C93.17290216 42.87798413 95.69535263 44.05590361 98.21777344 45.23388672 C103.85365032 47.86574346 109.49036317 50.49580879 115.12701416 53.12600708 C118.25137712 54.58393113 121.37568581 56.04197146 124.5 57.5 C125.74999974 58.08333389 126.99999974 58.66666722 128.25 59.25 C135.74999999 62.75 135.74999999 62.75 137.62460327 63.62481689 C138.87592362 64.20876503 140.12724605 64.79270871 141.37857056 65.37664795 C144.4833862 66.82553837 147.58816686 68.27450366 150.69287109 69.72363281 C156.55855255 72.46135722 162.42460635 75.1982763 168.29180908 77.93273926 C171.06771595 79.22652853 173.84343561 80.52071914 176.61914062 81.81494141 C177.94424222 82.43265551 179.26943583 83.05017227 180.59472656 83.66748047 C182.43057037 84.52261445 184.26607396 85.37847871 186.1015625 86.234375 C187.14650879 86.72131836 188.19145508 87.20826172 189.26806641 87.70996094 C191.52655566 88.77643611 193.76605408 89.88302704 196 91 C196 112.78 196 134.56 196 157 C183 161 183 161 177 162 C177 144.84 177 127.68 177 110 C175.35 109.34 173.7 108.68 172 108 C170.28087185 107.13039429 168.57288081 106.23851855 166.875 105.328125 C165.92109375 104.82925781 164.9671875 104.33039063 163.984375 103.81640625 C161.98832431 102.7687409 159.99870878 101.70872608 158.015625 100.63671875 C157.06171875 100.14300781 156.1078125 99.64929688 155.125 99.140625 C154.26132813 98.68204102 153.39765625 98.22345703 152.5078125 97.75097656 C149.31190667 96.79394713 147.89991368 97.49157716 145 99 C145.58956624 102.20748471 146.54854886 103.88715795 148.72265625 106.2890625 C162.38152608 123.37693731 159.1119116 144.34125271 158 165 C152.72 165.99 147.44 166.98 142 168 C137.55869741 182.9389269 137.44046699 197.06521717 137.60552979 212.5800972 C137.62519231 214.64519743 137.63673035 216.71018648 137.64550781 218.77536011 C137.73281415 239.27997208 138.4080655 259.70889528 139.68389893 280.17420959 C140.21874057 289.11359854 140.19526778 298.05022689 140 307 C137.79173622 307.02722517 135.58337362 307.04649729 133.375 307.0625 C131.53035156 307.07990234 131.53035156 307.07990234 129.6484375 307.09765625 C126.31647367 307.00847092 123.27296398 306.58316066 120 306 C119.99780016 304.35533076 119.99780016 304.35533076 119.99555588 302.67743587 C119.9589677 276.00364047 119.89952701 249.3299707 119.81609726 222.65627956 C119.77628087 209.75709765 119.74390154 196.85797698 119.72900391 183.95874023 C119.71600092 172.71631398 119.68907074 161.47402233 119.64538693 150.23167187 C119.62274185 144.27842077 119.60709116 138.32533588 119.60811615 132.37203789 C119.60886095 126.76842516 119.59098224 121.16518026 119.55883217 115.56166267 C119.55031472 113.50538434 119.54859572 111.44906483 119.55419731 109.39277649 C119.56083081 106.58343721 119.54293193 103.77527044 119.51898193 100.96604919 C119.53062256 99.74763963 119.53062256 99.74763963 119.54249835 98.50461572 C119.45809817 92.90586969 118.18902745 89.62412135 115 85 C113.24833953 83.63944125 113.24833953 83.63944125 111.27734375 83.14453125 C110.57891357 82.91644775 109.8804834 82.68836426 109.16088867 82.45336914 C108.42717041 82.24188232 107.69345215 82.03039551 106.9375 81.8125 C105.41120432 81.32892601 103.88516259 80.84454976 102.359375 80.359375 C101.61623047 80.13185547 100.87308594 79.90433594 100.10742188 79.66992188 C96.40085883 78.49165392 92.80828924 77.01116759 89.19921875 75.56640625 C86.73004456 74.93047329 85.38005207 75.16670946 83 76 C83 79.42346283 83.35129223 79.76993122 85.51953125 82.21484375 C86.04740234 82.81876953 86.57527344 83.42269531 87.11914062 84.04492188 C87.67794922 84.66947266 88.23675781 85.29402344 88.8125 85.9375 C89.90338489 87.17486414 90.99325766 88.41312144 92.08203125 89.65234375 C92.56905518 90.19882568 93.0560791 90.74530762 93.55786133 91.30834961 C96.47305415 94.72791471 98.32755504 97.09679267 98.93823242 101.63867188 C99.06257156 102.56063354 99.18691071 103.48259521 99.3150177 104.43249512 C99.43149155 105.43445923 99.54796539 106.43642334 99.66796875 107.46875 C99.79431198 108.53097778 99.92065521 109.59320557 100.05082703 110.68762207 C101.45427929 123.61481431 101.40605472 136.51281172 101.3125 149.5 C101.30719249 150.86013553 101.30255491 152.22027382 101.29855347 153.58041382 C101.1476502 203.05450951 99.88121329 252.56307053 98 302 C85.79 302 73.58 302 61 302 C60.99413376 299.11125122 60.98826752 296.22250244 60.98222351 293.24621582 C60.92702681 266.74483948 60.85705741 240.24353 60.77101372 213.74223593 C60.7597458 210.26761077 60.74860731 206.79298521 60.73754883 203.31835938 C60.73534514 202.62663523 60.73314146 201.93491109 60.730871 201.22222561 C60.69551593 190.02761799 60.6706417 178.83301043 60.64965298 167.63836771 C60.62787664 156.14831589 60.59458695 144.6583455 60.55129844 133.16835356 C60.52735328 126.71598835 60.5086329 120.26370319 60.50238609 113.81129456 C60.49634121 107.73743494 60.47636246 101.66378015 60.44572449 95.58999634 C60.43693479 93.36159182 60.4332236 91.13316054 60.43499184 88.90473938 C60.4366452 85.85947417 60.41993929 82.81483289 60.39872742 79.76965332 C60.40357499 78.89025605 60.40842257 78.01085877 60.41341704 77.1048131 C60.3480145 71.40540626 59.25283471 67.24080659 57 62 C56.67 61.01 56.34 60.02 56 59 C54.30020352 57.89471602 54.30020352 57.89471602 52 57 C50.93910156 56.53722656 49.87820313 56.07445312 48.78515625 55.59765625 C40.61618363 52.19272545 32.71768191 49.67591187 24 48 C26.90991267 52.06543819 29.84337265 55.94538149 33.37780285 59.49126434 C42.15317227 68.55769945 44.64295251 75.737785 44.61746216 88.26951599 C44.57147625 90.33660598 44.52422407 92.40366811 44.47583008 94.47070312 C44.47215554 96.68978152 44.47423624 98.90887567 44.48158264 101.12794495 C44.48528732 107.10549307 44.40928587 113.0795961 44.31812119 119.0563488 C44.23642087 125.31948888 44.22918398 131.58272272 44.21379089 137.84631348 C44.17807701 148.34393237 44.09708155 158.84038281 43.98071289 169.33740234 C43.86107081 180.14105042 43.76920795 190.94435684 43.71411133 201.74853516 C43.71069592 202.41640559 43.70728052 203.08427601 43.70376161 203.77238494 C43.68679402 207.1234687 43.67036632 210.47455484 43.65420687 213.82564259 C43.51860776 241.55150069 43.28036686 269.2752018 43 297 C28.81 297 14.62 297 0 297 C0 198.99 0 100.98 0 0 Z " fill="#FDFDFD" transform="translate(1091,325)"/>
<path d="M0 0 C4.5063801 1.80255204 7.77197354 3.86524706 11.5625 6.75 C17.56922176 11.23981206 23.6552495 15.59404678 29.8125 19.875 C36.27654158 24.37463655 42.69447496 28.92802017 49.0625 33.5625 C55.13910696 37.98099924 61.2841723 42.27972016 67.5 46.5 C74.47404058 51.2350738 81.34103067 56.09438349 88.15795898 61.05249023 C95.39495097 66.30851634 102.72242651 71.43062693 110.05859375 76.546875 C115.65923175 80.4539367 121.2326425 84.3993011 126.79711914 88.35766602 C130.28264848 90.86652992 130.28264848 90.86652992 134 93 C134 137.88 134 182.76 134 229 C123.2992126 227.81102362 123.2992126 227.81102362 119 223 C116.16554937 216.86498268 115.61331874 211.96620517 115.80566406 205.27026367 C115.8195668 204.33091476 115.83346954 203.39156586 115.84779358 202.42375183 C115.87804314 200.39613116 115.91433918 198.36859338 115.95609283 196.34117699 C116.03721833 192.01699197 116.06241816 187.69303706 116.09092331 183.3682375 C116.14424163 175.33114265 116.21886267 167.29595466 116.39404297 159.26049805 C116.51409135 153.65489941 116.56021189 148.05280778 116.55852509 142.44597816 C116.57148661 140.31954586 116.61135971 138.19309033 116.67945099 136.06770897 C117.39098229 125.01379924 117.39098229 125.01379924 113.53321838 115.04639053 C110.02237338 111.66506707 106.08824059 109.23503944 101.79051971 106.97715187 C99.3258549 105.63209444 97.15259055 103.96781107 94.9375 102.25 C91.90663562 100.2409043 91.25250525 99.99114017 87.4375 100.125 C86.633125 100.41375 85.82875 100.7025 85 101 C86.72504241 105.80116698 88.60222508 110.40697541 91.18809509 114.81246948 C97.96594434 126.61058349 99.2351764 136.13461577 98.87890625 149.5703125 C98.86206432 151.47269639 98.84927967 153.37512004 98.84031677 155.27755737 C98.80638995 160.22028528 98.71838002 165.16053029 98.61798096 170.10229492 C98.52495135 175.17071972 98.48460613 180.23955641 98.43945312 185.30859375 C98.34370543 195.20680419 98.19065391 205.10319355 98 215 C94.99053463 213.74872963 91.9833745 212.49200656 88.9765625 211.234375 C88.13424072 210.8842334 87.29191895 210.5340918 86.42407227 210.17333984 C80.22912247 207.57787467 74.23660422 204.73486264 68.2734375 201.640625 C65.63440886 200.31796148 62.99394522 199.08951587 60.29541016 197.89746094 C59.48963531 197.54101501 58.68386047 197.18456909 57.85366821 196.81732178 C57.2419577 196.54760559 56.63024719 196.2778894 56 196 C56.0169693 195.39630081 56.0339386 194.79260162 56.05142212 194.17060852 C56.45786608 179.41160152 56.72857265 164.65465145 56.8523407 149.89082336 C56.91540466 142.7497916 57.0226248 135.61476492 57.23779297 128.4765625 C57.42546465 122.24669426 57.52622964 116.02216208 57.52715683 109.78937054 C57.53056832 106.49195366 57.58726077 103.21019078 57.72271729 99.91519165 C58.5521279 85.64555139 58.5521279 85.64555139 52.60125732 73.24212646 C46.32882429 67.78961932 38.93747621 62.65697543 31 60 C28.10478695 60.31060805 25.76588765 61.07803745 23 62 C23.43868408 62.73114014 23.87736816 63.46228027 24.3293457 64.21557617 C28.88623047 71.81038411 33.44311523 79.40519206 38 87 C38.52339966 87.67353516 39.04679932 88.34707031 39.58605957 89.04101562 C41.67165501 93.40558727 41.39403812 97.42879256 41.34057617 102.20629883 C41.34123329 103.74358139 41.34123329 103.74358139 41.34190369 105.31192017 C41.33981644 108.69381876 41.31648778 112.07521943 41.29296875 115.45703125 C41.28737259 117.80400827 41.28310258 120.1509888 41.28010559 122.49797058 C41.26865851 128.67119037 41.2391922 134.84419796 41.20599365 141.01733398 C41.17529001 147.31816742 41.1615996 153.61903518 41.14648438 159.91992188 C41.11432262 172.28004108 41.06312767 184.64000288 41 197 C27.37707388 203.34356482 27.37707388 203.34356482 20.859375 205.9921875 C19.10173828 206.70761719 19.10173828 206.70761719 17.30859375 207.4375 C16.13425781 207.911875 14.95992187 208.38625 13.75 208.875 C12.52925781 209.37257813 11.30851562 209.87015625 10.05078125 210.3828125 C1.13699777 214 1.13699777 214 0 214 C0 143.38 0 72.76 0 0 Z " fill="#FCFCFC" transform="translate(1021,103)"/>
<path d="M0 0 C17.16 0 34.32 0 52 0 C63.05542161 44.07428081 63.05542161 44.07428081 67 61 C67.42727392 62.82601267 67.85455682 64.65202323 68.28199768 66.47799683 C71.20817775 78.98066999 74.11784413 91.48709805 77 104 C77.33 104 77.66 104 78 104 C78.12938965 103.42185547 78.2587793 102.84371094 78.39208984 102.24804688 C81.74472651 87.34104435 85.33712905 72.50505264 89.0625 57.6875 C92.46678982 44.14549994 95.82253812 30.59734549 99 17 C100.32 11.39 101.64 5.78 103 0 C120.16 0 137.32 0 155 0 C155 48.84 155 97.68 155 148 C145.1 148 135.2 148 125 148 C125 110.05 125 72.1 125 33 C123.515 33.495 123.515 33.495 122 34 C121.01831766 36.34533608 121.01831766 36.34533608 120.38671875 39.265625 C119.97365479 40.92646118 119.97365479 40.92646118 119.55224609 42.62084961 C119.26687988 43.81846924 118.98151367 45.01608887 118.6875 46.25 C118.07122096 48.73622607 117.45270719 51.2218992 116.83203125 53.70703125 C116.52475098 54.94533691 116.2174707 56.18364258 115.90087891 57.45947266 C114.66471431 62.31770001 113.28678808 67.12791943 111.875 71.9375 C109.93531698 78.59328753 108.14588977 85.2655567 106.5 92 C104.16564907 101.5452569 101.48115301 110.9720502 98.74511719 120.40869141 C96.77589167 127.25710543 94.89853396 134.13177419 93 141 C82.77 141 72.54 141 62 141 C57.50757444 126.39961692 57.50757444 126.39961692 55.8515625 119.8125 C55.48545675 118.36823941 55.11932632 116.92398507 54.75317383 115.47973633 C54.56896881 114.74800201 54.38476379 114.0162677 54.19497681 113.26235962 C51.3377144 101.92127517 48.39609062 90.6229094 45.10473633 79.39892578 C42.89383161 71.7932899 40.97481504 64.12141475 39.09106445 56.42895508 C38.8612085 55.49075928 38.63135254 54.55256348 38.39453125 53.5859375 C38.16975098 52.66780273 37.9449707 51.74966797 37.71337891 50.80371094 C36.7401847 46.97887784 35.65742461 43.18708983 34.55737305 39.39697266 C34 37 34 37 34 33 C32.68 33 31.36 33 30 33 C30 70.95 30 108.9 30 148 C20.1 148 10.2 148 0 148 C0 99.16 0 50.32 0 0 Z " fill="#0A2C48" transform="translate(104,788)"/>
<path d="M0 0 C1.00611328 0.00064453 2.01222656 0.00128906 3.04882812 0.00195312 C10.5217853 0.0462884 10.5217853 0.0462884 14.06030273 0.67822266 C18.2642636 1.33654128 22.39931063 1.41976537 26.6484375 1.50390625 C27.96746567 1.5350779 27.96746567 1.5350779 29.31314087 1.56687927 C32.10451931 1.63192963 34.89598671 1.69105148 37.6875 1.75 C39.58724855 1.79322762 41.48698831 1.83684323 43.38671875 1.88085938 C48.02855624 1.98829055 52.67046731 2.08769417 57.3125 2.1875 C57.3125 9.7775 57.3125 17.3675 57.3125 25.1875 C52.3625 24.8575 47.4125 24.5275 42.3125 24.1875 C43.3025 25.981875 43.3025 25.981875 44.3125 27.8125 C48.08814667 36.28762179 47.33244192 46.55909453 44.3125 55.1875 C41.15125129 63.06592452 37.62446839 68.72326889 29.76953125 72.3671875 C26.97723025 73.44629959 24.18609143 74.35037533 21.3125 75.1875 C20.57773437 75.414375 19.84296875 75.64125 19.0859375 75.875 C10.11433464 78.15752794 0.49695688 77.36129613 -8.6875 77.1875 C-9.73452186 80.9139085 -9.76192057 84.31763042 -9.6875 88.1875 C-6.05092226 90.47211292 -2.48896705 90.56798483 1.68359375 90.71484375 C3.16081252 90.78569846 4.63802588 90.85666582 6.11523438 90.92773438 C8.41840417 91.02772411 10.72167164 91.12386006 13.02514648 91.21655273 C41.07915984 92.38635617 41.07915984 92.38635617 50.80078125 101.59765625 C58.18580937 109.76693514 58.07546088 118.58993213 57.78515625 128.98828125 C57.23199209 137.55076936 53.84244045 144.03255955 47.8125 150.0625 C35.50134601 159.70859575 20.72695455 161.55077975 5.65527344 161.50317383 C3.57953689 161.50002584 1.50524782 161.52351042 -0.5703125 161.54882812 C-14.51999398 161.61622089 -29.19209289 159.81773785 -40.4375 150.78125 C-46.21315256 144.59305083 -47.28434469 136.21641835 -47.02734375 128.10546875 C-46.00350725 119.31459676 -40.89320917 113.20515738 -34.6875 107.1875 C-33.6975 106.6925 -33.6975 106.6925 -32.6875 106.1875 C-33.71661077 103.97095373 -34.76984225 102.07880823 -36.25 100.125 C-39.68819875 95.49090603 -39.47413758 89.68693948 -38.6875 84.1875 C-37.30166432 81.13629929 -35.72651544 78.40630156 -33.90234375 75.59765625 C-32.50699963 73.32526607 -32.50699963 73.32526607 -32.796875 71.09765625 C-33.8735812 68.7884048 -35.20509281 67.36893764 -37 65.5625 C-44.71656857 57.08536615 -46.01411296 46.8943602 -45.8984375 35.82421875 C-45.31359226 25.74105352 -41.98931553 17.15131272 -34.54296875 10.1796875 C-24.03421816 1.62230627 -13.18760945 -0.16238793 0 0 Z " fill="#0C2D49" transform="translate(613.6875,824.8125)"/>
<path d="M0 0 C0.99 -0.00128906 1.98 -0.00257813 3 -0.00390625 C4.02351563 -0.00003906 5.04703125 0.00382813 6.1015625 0.0078125 C7.11734375 0.00394531 8.133125 0.00007812 9.1796875 -0.00390625 C10.66855469 -0.00197266 10.66855469 -0.00197266 12.1875 0 C13.08259277 0.00112793 13.97768555 0.00225586 14.89990234 0.00341797 C17.7265625 0.1328125 17.7265625 0.1328125 20.99682617 0.62133789 C25.32924152 1.21546044 29.57443785 1.35988271 33.94140625 1.44921875 C34.79714737 1.46999985 35.65288849 1.49078094 36.53456116 1.51219177 C39.24432026 1.57711204 41.9541689 1.63630228 44.6640625 1.6953125 C46.51107664 1.73855255 48.35808202 1.78216851 50.20507812 1.82617188 C54.71214954 1.93343491 59.21929729 2.03293439 63.7265625 2.1328125 C63.7265625 9.7228125 63.7265625 17.3128125 63.7265625 25.1328125 C58.7765625 24.8028125 53.8265625 24.4728125 48.7265625 24.1328125 C49.7165625 25.9271875 49.7165625 25.9271875 50.7265625 27.7578125 C54.96426419 37.41371849 53.22544897 47.69068979 49.8515625 57.35546875 C47.07481455 64.21056526 43.07984717 68.47735698 36.7265625 72.1328125 C26.96541709 76.21616018 17.76803148 77.2933878 7.2890625 77.1953125 C6.36673828 77.19080078 5.44441406 77.18628906 4.49414062 77.18164062 C2.23821202 77.16995188 -0.01757717 77.15356705 -2.2734375 77.1328125 C-3.32045936 80.859221 -3.34785807 84.26294292 -3.2734375 88.1328125 C0.36314024 90.41742542 3.92509545 90.51329733 8.09765625 90.66015625 C9.57487502 90.73101096 11.05208838 90.80197832 12.52929688 90.87304688 C14.83246667 90.97303661 17.13573414 91.06917256 19.43920898 91.16186523 C47.49322234 92.33166867 47.49322234 92.33166867 57.21484375 101.54296875 C64.59987187 109.71224764 64.48952338 118.53524463 64.19921875 128.93359375 C63.64605459 137.49608186 60.25650295 143.97787205 54.2265625 150.0078125 C41.75126893 159.76382602 26.71043572 161.49881071 11.42114258 161.44848633 C9.42719051 161.44533326 7.43325724 161.46964672 5.43945312 161.49414062 C-8.04956139 161.50080845 -24.01459804 160.03816078 -34.28125 150.2109375 C-39.61177025 143.56710067 -40.8157079 136.56538063 -40.6484375 128.19140625 C-39.61187737 119.73696266 -34.26408976 112.9122075 -28.2734375 107.1328125 C-27.2834375 106.6378125 -27.2834375 106.6378125 -26.2734375 106.1328125 C-27.30254827 103.91626623 -28.35577975 102.02412073 -29.8359375 100.0703125 C-33.28226566 95.42526151 -33.03965235 89.64393581 -32.2734375 84.1328125 C-30.1820667 79.08778262 -27.29296623 74.66210559 -24.2734375 70.1328125 C-24.8715625 69.8646875 -25.4696875 69.5965625 -26.0859375 69.3203125 C-32.9739805 65.58108915 -36.02892045 58.29224637 -38.2734375 51.1328125 C-40.95757701 40.41403021 -40.11663131 28.58515948 -35.0546875 18.76953125 C-29.21897422 9.12439403 -20.96012526 4.14451541 -10.2734375 1.1328125 C-6.78951094 0.33023256 -3.57295545 0.00451375 0 0 Z " fill="#0C2D49" transform="translate(434.2734375,824.8671875)"/>
<path d="M0 0 C5.87647633 1.30588363 11.52617867 2.67188702 17.25 4.4375 C18.99589846 4.96809093 20.74201198 5.49797447 22.48828125 6.02734375 C23.48939941 6.33140137 24.49051758 6.63545898 25.52197266 6.94873047 C32.8204751 9.15477789 40.12949348 11.32568916 47.4375 13.5 C48.24203613 13.73965485 49.04657227 13.97930969 49.87548828 14.22622681 C60.33704307 17.34170921 70.80532632 20.42630346 81.32592773 23.33789062 C86.89574945 24.89574945 86.89574945 24.89574945 88 26 C88.1123418 28.16081562 88.15305937 30.32535744 88.1673584 32.48904419 C88.17315178 33.17508 88.17894517 33.86111582 88.18491411 34.56794059 C88.20305932 36.88399121 88.2138703 39.20001728 88.22460938 41.51611328 C88.23577869 43.16990892 88.24729182 44.82370226 88.25912476 46.47749329 C88.29576041 51.9250674 88.32091479 57.37266506 88.34375 62.8203125 C88.34769587 63.74647291 88.35164173 64.67263331 88.35570717 65.62685919 C88.39213508 74.35923237 88.42358722 83.0916135 88.44481659 91.82403755 C88.47238714 103.0008263 88.52313063 114.17698003 88.60529089 125.3535043 C88.66107377 133.20749041 88.69005162 141.06130421 88.6992898 148.91548145 C88.70554994 153.60808885 88.72369356 158.29995266 88.77067566 162.9923439 C88.81435779 167.41011798 88.8248262 171.82674234 88.81004715 176.24469566 C88.81037573 177.86403799 88.82264681 179.48342981 88.84789658 181.1025753 C89.05101474 194.8564972 89.05101474 194.8564972 84.57434082 199.51828003 C81.51746944 202 81.51746944 202 79 202 C79 151.84 79 101.68 79 50 C75.37 49.01 71.74 48.02 68 47 C65.96754304 46.30388931 63.94281471 45.58332053 61.9375 44.8125 C58.55407208 43.43674887 58.55407208 43.43674887 55 43 C55.23710693 43.52432617 55.47421387 44.04865234 55.71850586 44.58886719 C56.79493998 46.97437813 57.86626388 49.36215061 58.9375 51.75 C59.31068359 52.575 59.68386719 53.4 60.06835938 54.25 C60.42607422 55.04921875 60.78378906 55.8484375 61.15234375 56.671875 C61.48226318 57.4050293 61.81218262 58.13818359 62.15209961 58.89355469 C63.77937587 62.93620933 64.12415997 66.43746947 64.12025452 70.79595947 C64.12231651 72.57117981 64.12231651 72.57117981 64.12442017 74.38226318 C64.11902725 76.32434662 64.11902725 76.32434662 64.11352539 78.30566406 C64.11324326 79.68554685 64.11340176 81.0654298 64.1139679 82.4453125 C64.11425485 86.18877105 64.10837457 89.93219758 64.10139394 93.67564869 C64.09514346 97.58875682 64.09455526 101.50186568 64.09336853 105.41497803 C64.09026022 112.82387226 64.08205356 120.23275174 64.07201904 127.64163947 C64.06084239 136.07687805 64.05534354 144.51211733 64.05032361 152.94736147 C64.03987054 170.29824951 64.02228076 187.6491232 64 205 C57.0157654 207.44448211 50.24774 209.188065 43 211 C43 154.24 43 97.48 43 39 C39.7 38.01 36.4 37.02 33 36 C30.69 35.01 28.38 34.02 26 33 C26 93.39 26 153.78 26 216 C3 223 3 223 0 223 C0 149.41 0 75.82 0 0 Z " fill="#F8F9FA" transform="translate(648,329)"/>
<path d="M0 0 C9.57 0 19.14 0 29 0 C29 50.49 29 100.98 29 153 C19.43 153 9.86 153 0 153 C0 151.68 0 150.36 0 149 C-1.09699219 149.42152344 -2.19398437 149.84304688 -3.32421875 150.27734375 C-4.77856765 150.83093462 -6.2329991 151.38430862 -7.6875 151.9375 C-8.40873047 152.21529297 -9.12996094 152.49308594 -9.87304688 152.77929688 C-21.76587693 157.28662516 -33.96387148 157.3633024 -46 153 C-55.99551586 148.46172477 -60.8441899 142.49614269 -64.75 132.375 C-70.67612272 114.31080598 -71.29958153 92.55039577 -67 74 C-66.80535156 73.11570312 -66.61070313 72.23140625 -66.41015625 71.3203125 C-63.83023037 61.27539397 -57.48762875 52.12451271 -48.68359375 46.52734375 C-32.89229625 38.05095088 -17.26093885 40.95395197 0 44 C0 29.48 0 14.96 0 0 Z " fill="#0B2D49" transform="translate(1255,783)"/>
<path d="M0 0 C6.06142213 2.02047404 11.58890457 4.05311008 17.27734375 6.80859375 C18.03787552 7.17152023 18.79840729 7.53444672 19.58198547 7.90837097 C21.20054568 8.68132117 22.81801317 9.45656316 24.43444824 10.23394775 C28.68423878 12.2773913 32.94244253 14.30319184 37.19921875 16.33203125 C38.04308136 16.73484314 38.88694397 17.13765503 39.75637817 17.55267334 C46.89829667 20.95969789 54.06323876 24.31342097 61.25 27.625 C62.79083252 28.3351123 62.79083252 28.3351123 64.36279297 29.05957031 C71.49207 32.33282624 78.6480003 35.5443902 85.83886719 38.68017578 C90.89680809 40.89680809 90.89680809 40.89680809 92 42 C92.09634459 43.77160318 92.12187481 45.54708408 92.12025452 47.32130432 C92.12231651 49.05247498 92.12231651 49.05247498 92.12442017 50.81861877 C92.11902725 52.73480263 92.11902725 52.73480263 92.11352539 54.68969727 C92.11324352 56.03958128 92.11340125 57.38946544 92.1139679 58.73934937 C92.11425587 62.41480608 92.10835916 66.09023043 92.10139394 69.7656796 C92.09516038 73.60273149 92.0945566 77.43978404 92.09336853 81.27684021 C92.09025522 88.54771218 92.08204183 95.81856919 92.07201904 103.08943456 C92.0608579 111.36499352 92.05534745 119.64055318 92.05032361 127.91611779 C92.03985922 144.94408719 92.02225978 161.97204202 92 179 C89.69 179 87.38 179 85 179 C81.94985847 172.08634586 81.8959651 165.63416992 82.08032227 158.22192383 C82.11971525 156.21574027 82.15821233 154.20953897 82.19593811 152.20332336 C82.21683062 151.14525293 82.23772312 150.0871825 82.25924873 148.99704933 C82.3775264 142.18892171 82.41353469 135.37978755 82.45933628 128.57085133 C82.50408758 122.59608904 82.58146734 116.62524489 82.73022461 110.65209961 C82.87281493 104.86038695 82.9266346 99.07379622 82.92103386 93.28040123 C82.93451436 91.08131217 82.97962561 88.88216874 83.05777168 86.68442726 C83.83446263 75.05392227 83.83446263 75.05392227 79.13978195 64.95550156 C74.24168161 61.04131436 68.80640134 58.31125646 63 56 C63.5110837 58.12677663 64.04829243 60.12605911 64.83203125 62.171875 C73.77242458 85.68047897 72.5123519 110.9666566 72.2746582 135.66003418 C72.23308842 140.44776214 72.21533405 145.23557954 72.1953125 150.0234375 C72.15293673 159.34918693 72.0850433 168.67454856 72 178 C70.10482969 177.85020284 68.20984568 177.69804762 66.31494141 177.54492188 C64.7320079 177.41821106 64.7320079 177.41821106 63.11709595 177.28894043 C58.83084382 176.89162461 54.61397394 176.23689564 50.375 175.5 C49.58738281 175.36980469 48.79976562 175.23960937 47.98828125 175.10546875 C42.26830357 174.13415179 42.26830357 174.13415179 40 173 C39.67 131.09 39.34 89.18 39 46 C32.73 43.03 26.46 40.06 20 37 C19.01 36.34 18.02 35.68 17 35 C17.38671875 35.81339844 17.7734375 36.62679687 18.171875 37.46484375 C27.56298633 58.12993774 29.32169907 79.50776996 29.1953125 101.93359375 C29.19157283 103.9075557 29.18873038 105.88151953 29.18673706 107.85548401 C29.17917562 112.99937247 29.15959335 118.14314428 29.1373291 123.2869873 C29.11670741 128.5565432 29.10770077 133.82611833 29.09765625 139.09570312 C29.07633886 149.39718609 29.04229577 159.69858327 29 170 C19.16293172 169.37164101 9.79974156 167.63329026 0 166 C0 111.22 0 56.44 0 0 Z " fill="#FCFDFD" transform="translate(1419,494)"/>
<path d="M0 0 C9.57 0 19.14 0 29 0 C32.37536735 15.75171431 32.37536735 15.75171431 33.2109375 21.20703125 C33.40147705 22.43768311 33.5920166 23.66833496 33.78833008 24.9362793 C33.98193115 26.21543213 34.17553223 27.49458496 34.375 28.8125 C34.58524075 30.18469613 34.79577816 31.55684684 35.0065918 32.92895508 C35.44700066 35.800267 35.88475131 38.67196828 36.32080078 41.54394531 C36.89812289 45.34112976 37.48502489 49.13676801 38.07489014 52.93202209 C38.54415626 55.95424523 39.01003885 58.97698368 39.47515869 61.99984741 C39.69861127 63.44893353 39.92316559 64.89785022 40.14886475 66.34658813 C40.46353939 68.36984455 40.77337905 70.39378605 41.08203125 72.41796875 C41.34850464 74.14696411 41.34850464 74.14696411 41.62036133 75.91088867 C41.95710461 78.65096118 42.07569805 81.2442687 42 84 C43.98 84 45.96 84 48 84 C48.03593262 83.38974976 48.07186523 82.77949951 48.10888672 82.15075684 C48.7329895 73.67050738 50.38300984 65.46082579 52.125 57.15625 C52.43553847 55.65468087 52.74558828 54.1530106 53.05517578 52.65124512 C53.70041014 49.5274595 54.34955471 46.40452371 55.00195312 43.28222656 C55.83798558 39.28086302 56.66703174 35.27809363 57.49356079 31.27475739 C58.2849683 27.44308875 59.07987462 23.61214852 59.875 19.78125 C60.02584045 19.05295486 60.17668091 18.32465973 60.33209229 17.57429504 C60.7585191 15.51852133 61.18744218 13.46328535 61.6171875 11.40820312 C61.86065918 10.24003052 62.10413086 9.07185791 62.35498047 7.86828613 C63 5 63 5 64 2 C74.23 2 84.46 2 95 2 C100.28 28.73 105.56 55.46 111 83 C112.65 83.33 114.3 83.66 116 84 C116.0767395 82.99924438 116.0767395 82.99924438 116.1550293 81.97827148 C116.7118078 75.26231417 117.63988439 68.69562019 118.8125 62.0625 C120.37808369 52.95620149 121.77799079 43.83760745 123.0625 34.6875 C124.22758766 26.40969428 125.40171089 18.13505061 126.6875 9.875 C126.80681885 9.09342529 126.9261377 8.31185059 127.04907227 7.5065918 C127.88037964 2.23924071 127.88037964 2.23924071 129 0 C138.57 0 148.14 0 158 0 C156.57812862 11.83363927 154.49661758 23.4705837 152.22363281 35.16845703 C151.62889831 38.22993294 151.04046368 41.29256628 150.453125 44.35546875 C148.50343433 54.48194628 146.51540439 64.59533793 144.27481079 74.66217041 C143.30952103 79.10203428 142.6626998 83.48357469 142.24795532 88.00933838 C141.86306885 91.0993254 140.86114433 94.01132263 140 97 C139.34 100.96 138.68 104.92 138 109 C122.49 109 106.98 109 91 109 C90.01 103.39 89.02 97.78 88 92 C87.25582307 88.01719749 86.50564713 84.03683439 85.73828125 80.05859375 C85.54276169 79.03943375 85.34724213 78.02027374 85.14579773 76.9702301 C84.53588042 73.79242499 83.9242301 70.61495658 83.3125 67.4375 C82.89246186 65.25067337 82.47253923 63.06382455 82.05273438 60.87695312 C81.03648465 55.58437946 80.01882159 50.29207915 79 45 C78.89096344 45.70960876 78.78192688 46.41921753 78.66958618 47.15032959 C75.47012908 67.93658619 71.40703056 88.4338574 67 109 C51.49 109 35.98 109 20 109 C19.21625 104.66875 18.4325 100.3375 17.625 95.875 C14.92099021 80.97780718 12.17769599 66.08791592 9.42303467 51.20001221 C8.97622025 48.78513971 8.52964432 46.37022307 8.08331299 43.95526123 C7.44696301 40.51299501 6.80958084 37.07092152 6.171875 33.62890625 C5.98247345 32.60391525 5.7930719 31.57892426 5.59793091 30.52287292 C4.76165042 26.01552085 3.90717795 21.51466886 2.98925781 17.02319336 C1.87603727 11.37054959 0.94713853 5.68283118 0 0 Z " fill="#0C2D49" transform="translate(1303,827)"/>
<path d="M0 0 C9.9 0 19.8 0 30 0 C30 19.8 30 39.6 30 60 C48.15 60 66.3 60 85 60 C85 40.2 85 20.4 85 0 C95.23 0 105.46 0 116 0 C116 48.84 116 97.68 116 148 C105.77 148 95.54 148 85 148 C85 127.87 85 107.74 85 87 C66.85 87 48.7 87 30 87 C30 107.13 30 127.26 30 148 C20.1 148 10.2 148 0 148 C0 99.16 0 50.32 0 0 Z " fill="#0D2E4A" transform="translate(855,788)"/>
<path d="M0 0 C9.9925475 8.74073386 14.38467876 23.23976261 15.43554688 36.07666016 C15.55213046 39.5954096 15.56231426 43.09682282 15.52734375 46.6171875 C15.53894531 47.78507813 15.55054688 48.95296875 15.5625 50.15625 C15.5129031 65.06838328 12.25019811 79.69546461 2.50390625 91.28515625 C-6.9556318 100.66612671 -19.04133052 104.79452456 -32.14135742 104.9465332 C-32.97256104 104.94097412 -33.80376465 104.93541504 -34.66015625 104.9296875 C-35.97173706 104.92231567 -35.97173706 104.92231567 -37.30981445 104.91479492 C-50.16456172 104.68293148 -61.51906188 101.24453689 -71.15625 92.45703125 C-85.65344009 76.68757044 -85.54306526 56.21419405 -85.02685547 36.09228516 C-84.31246194 22.23850109 -79.37210351 8.87653601 -69.02734375 -0.66796875 C-50.30027428 -15.40127251 -18.74105427 -14.02607444 0 0 Z " fill="#0C2E49" transform="translate(767.84765625,834.3828125)"/>
<path d="M0 0 C6.38516871 0.58046988 12.47713883 1.14235921 18.7578125 2.15625 C19.43117645 2.2634436 20.10454041 2.37063721 20.79830933 2.4810791 C22.9077763 2.81727205 25.01643256 3.15821469 27.125 3.5 C37.71774873 5.2521303 37.71774873 5.2521303 48.3671875 6.59375 C52 7 52 7 54 8 C54 71.36 54 134.72 54 200 C42.2724756 188.2724756 42.90486431 165.41845017 42.86094666 149.97769165 C42.86134579 147.5684354 42.86774509 145.15924491 42.875 142.75 C42.87632935 141.46734756 42.87632935 141.46734756 42.87768555 140.15878296 C42.91821962 105.43861683 43.52688457 70.71636623 44 36 C42.86947456 35.79444992 42.86947456 35.79444992 41.71611023 35.58474731 C40.72657852 35.40483246 39.73704681 35.2249176 38.7175293 35.03955078 C37.73697067 34.8612674 36.75641205 34.68298401 35.74613953 34.4992981 C34.83991348 34.33452972 33.93368744 34.16976135 33 34 C31.85144531 33.79117188 30.70289063 33.58234375 29.51953125 33.3671875 C27.01302083 32.91145833 24.50651042 32.45572917 22 32 C22.26554687 32.64066406 22.53109375 33.28132813 22.8046875 33.94140625 C23.33449219 35.23884766 23.33449219 35.23884766 23.875 36.5625 C24.22304688 37.40941406 24.57109375 38.25632812 24.9296875 39.12890625 C27.50234388 46.03001004 28.66483202 52.79091442 29.5625 60.0625 C29.68818359 60.99126953 29.81386719 61.92003906 29.94335938 62.87695312 C32.59506153 83.99338754 32.16582272 105.39530208 32.12857056 126.63777924 C32.12496589 128.95946883 32.12337433 131.28115218 32.12231445 133.60284424 C32.10899138 157.07936638 31.87224957 180.53741461 31 204 C26.96027133 204.84291786 22.91793891 205.67262865 18.875 206.5 C17.73289062 206.73847656 16.59078125 206.97695313 15.4140625 207.22265625 C14.30546875 207.44824219 13.196875 207.67382812 12.0546875 207.90625 C11.03874512 208.11572266 10.02280273 208.32519531 8.97607422 208.54101562 C6 209 6 209 0 209 C0 140.03 0 71.06 0 0 Z " fill="#FDFDFD" transform="translate(468,448)"/>
<path d="M0 0 C8.63099339 6.66659167 13.90371072 16.36896088 15.90234375 27.06640625 C17.14857713 38.82663671 15.65305042 49.8966904 14.1796875 61.68359375 C-6.9403125 61.68359375 -28.0603125 61.68359375 -49.8203125 61.68359375 C-48.22195811 70.19148262 -48.22195811 70.19148262 -43.8203125 76.68359375 C-37.46112637 80.34968193 -31.46099809 80.06776725 -24.2578125 79.93359375 C-23.07791748 79.92263672 -21.89802246 79.91167969 -20.68237305 79.90039062 C-9.71300678 79.76484812 1.22615777 79.27170273 12.1796875 78.68359375 C12.1796875 85.94359375 12.1796875 93.20359375 12.1796875 100.68359375 C-39.23183464 112.54779117 -39.23183464 112.54779117 -60.2578125 100.99609375 C-70.22124183 94.34836303 -75.76143026 84.85662269 -78.6328125 73.37109375 C-82.25777169 52.91299071 -82.58403441 27.70662223 -70.8203125 9.68359375 C-64.19134883 0.40607154 -55.16934169 -5.19671687 -44.08984375 -7.84375 C-28.70608365 -10.06768664 -13.2661417 -8.72085709 0 0 Z " fill="#0C2E49" transform="translate(1746.8203125,832.31640625)"/>
<path d="M0 0 C6.37329843 5.95674298 9.70774358 13.05562209 10.13803101 21.80749512 C10.14452667 22.8294397 10.15102234 23.85138428 10.15771484 24.90429688 C10.16797699 26.06900513 10.17823914 27.23371338 10.18881226 28.43371582 C10.19611359 29.6827771 10.20341492 30.93183838 10.2109375 32.21875 C10.23181722 34.19064454 10.25271428 36.16253908 10.27463722 38.1344223 C10.32769361 42.98619412 10.37206423 47.83796676 10.40136719 52.68994141 C10.41827419 55.41685182 10.44296927 58.1434793 10.47622681 60.87023926 C10.5071923 63.4354712 10.52661371 66.00087404 10.53329468 68.56628418 C10.54986115 69.73099243 10.56642761 70.89570068 10.58349609 72.09570312 C10.59158295 73.11764771 10.5996698 74.13959229 10.60800171 75.19250488 C11.06641812 78.47568712 12.00537545 80.3666838 14 83 C15.485 83.495 15.485 83.495 17 84 C17 91.59 17 99.18 17 107 C7.18077634 107.31674915 -2.26985041 107.41228252 -10.625 101.625 C-14.25957588 99.87501902 -14.47921691 99.78277759 -18 101 C-18.763125 101.30550781 -19.52625 101.61101562 -20.3125 101.92578125 C-33.14288191 107.05420425 -47.69827566 109.8187294 -61.125 105.3125 C-70.07095406 101.42236543 -75.2290473 96.73263608 -78.97265625 87.63671875 C-82.1365274 77.93908577 -83.08684983 64.47552713 -79.09375 54.91796875 C-73.89410263 45.80001568 -66.13722003 41.18213142 -56.15087891 38.44189453 C-51.39002977 37.46378591 -46.5270194 37.2245686 -41.6875 36.875 C-40.61048828 36.78863281 -39.53347656 36.70226562 -38.42382812 36.61328125 C-31.93580191 36.11813207 -25.5061083 35.88507365 -19 36 C-19.13521249 27.37168173 -19.13521249 27.37168173 -23 20 C-26.83370756 18.07308839 -29.76131366 17.80893995 -34.015625 18.0234375 C-35.17739258 18.07508057 -36.33916016 18.12672363 -37.53613281 18.17993164 C-39.37449707 18.27649048 -39.37449707 18.27649048 -41.25 18.375 C-43.7707291 18.48802624 -46.29156445 18.59870726 -48.8125 18.70703125 C-50.03839844 18.76068848 -51.26429688 18.8143457 -52.52734375 18.86962891 C-59.35149184 19.12582232 -66.17283794 19.0877778 -73 19 C-73.78688445 16.22276075 -74.11949924 13.77389923 -74.09765625 10.890625 C-74.09443359 10.13652344 -74.09121094 9.38242187 -74.08789062 8.60546875 C-74.07951172 7.82816406 -74.07113281 7.05085937 -74.0625 6.25 C-74.05798828 5.45722656 -74.05347656 4.66445313 -74.04882812 3.84765625 C-74.03708565 1.89840492 -74.01915146 -0.05080738 -74 -2 C-20.01574219 -14.87124665 -20.01574219 -14.87124665 0 0 Z " fill="#0C2E49" transform="translate(362,832)"/>
<path d="M0 0 C6.37329843 5.95674298 9.70774358 13.05562209 10.13803101 21.80749512 C10.14452667 22.8294397 10.15102234 23.85138428 10.15771484 24.90429688 C10.16797699 26.06900513 10.17823914 27.23371338 10.18881226 28.43371582 C10.19611359 29.6827771 10.20341492 30.93183838 10.2109375 32.21875 C10.23181722 34.19064454 10.25271428 36.16253908 10.27463722 38.1344223 C10.32769361 42.98619412 10.37206423 47.83796676 10.40136719 52.68994141 C10.41827419 55.41685182 10.44296927 58.1434793 10.47622681 60.87023926 C10.5071923 63.4354712 10.52661371 66.00087404 10.53329468 68.56628418 C10.54986115 69.73099243 10.56642761 70.89570068 10.58349609 72.09570312 C10.59158295 73.11764771 10.5996698 74.13959229 10.60800171 75.19250488 C11.06641812 78.47568712 12.00537545 80.3666838 14 83 C15.485 83.495 15.485 83.495 17 84 C17 91.59 17 99.18 17 107 C7.18077634 107.31674915 -2.26985041 107.41228252 -10.625 101.625 C-14.25957588 99.87501902 -14.47921691 99.78277759 -18 101 C-18.763125 101.30550781 -19.52625 101.61101562 -20.3125 101.92578125 C-33.14288191 107.05420425 -47.69827566 109.8187294 -61.125 105.3125 C-70.07095406 101.42236543 -75.2290473 96.73263608 -78.97265625 87.63671875 C-82.1365274 77.93908577 -83.08684983 64.47552713 -79.09375 54.91796875 C-73.89410263 45.80001568 -66.13722003 41.18213142 -56.15087891 38.44189453 C-51.39002977 37.46378591 -46.5270194 37.2245686 -41.6875 36.875 C-40.61048828 36.78863281 -39.53347656 36.70226562 -38.42382812 36.61328125 C-31.93580191 36.11813207 -25.5061083 35.88507365 -19 36 C-19.13521249 27.37168173 -19.13521249 27.37168173 -23 20 C-27.85107368 17.22675161 -32.93433394 17.84212954 -38.33203125 18.0234375 C-39.32377853 18.04846344 -40.31552582 18.07348938 -41.33732605 18.09927368 C-44.49607618 18.18125853 -47.65418093 18.27793184 -50.8125 18.375 C-52.95765617 18.4332615 -55.10283861 18.49056431 -57.24804688 18.546875 C-62.49905316 18.68680513 -67.74960633 18.83878797 -73 19 C-73.16586427 17.23473448 -73.33020421 15.46932568 -73.49389648 13.70385742 C-73.58557602 12.72076096 -73.67725555 11.73766449 -73.77171326 10.72477722 C-74.00750842 7.91038128 -74.10342538 5.13635106 -74.0625 2.3125 C-74.05347656 1.48363281 -74.04445313 0.65476562 -74.03515625 -0.19921875 C-74.01775391 -1.09060547 -74.01775391 -1.09060547 -74 -2 C-20.01574219 -14.87124665 -20.01574219 -14.87124665 0 0 Z " fill="#0C2D49" transform="translate(1553,832)"/>
<path d="M0 0 C6.37329843 5.95674298 9.70774358 13.05562209 10.13803101 21.80749512 C10.14452667 22.8294397 10.15102234 23.85138428 10.15771484 24.90429688 C10.16797699 26.06900513 10.17823914 27.23371338 10.18881226 28.43371582 C10.19611359 29.6827771 10.20341492 30.93183838 10.2109375 32.21875 C10.23181722 34.19064454 10.25271428 36.16253908 10.27463722 38.1344223 C10.32769361 42.98619412 10.37206423 47.83796676 10.40136719 52.68994141 C10.41827419 55.41685182 10.44296927 58.1434793 10.47622681 60.87023926 C10.5071923 63.4354712 10.52661371 66.00087404 10.53329468 68.56628418 C10.54986115 69.73099243 10.56642761 70.89570068 10.58349609 72.09570312 C10.59158295 73.11764771 10.5996698 74.13959229 10.60800171 75.19250488 C11.06641812 78.47568712 12.00537545 80.3666838 14 83 C15.485 83.495 15.485 83.495 17 84 C17 91.59 17 99.18 17 107 C7.18077634 107.31674915 -2.26985041 107.41228252 -10.625 101.625 C-14.25957588 99.87501902 -14.47921691 99.78277759 -18 101 C-18.763125 101.30550781 -19.52625 101.61101562 -20.3125 101.92578125 C-33.14288191 107.05420425 -47.69827566 109.8187294 -61.125 105.3125 C-70.07095406 101.42236543 -75.2290473 96.73263608 -78.97265625 87.63671875 C-82.1365274 77.93908577 -83.08684983 64.47552713 -79.09375 54.91796875 C-73.89410263 45.80001568 -66.13722003 41.18213142 -56.15087891 38.44189453 C-51.39002977 37.46378591 -46.5270194 37.2245686 -41.6875 36.875 C-40.61048828 36.78863281 -39.53347656 36.70226562 -38.42382812 36.61328125 C-31.93580191 36.11813207 -25.5061083 35.88507365 -19 36 C-19.13521249 27.37168173 -19.13521249 27.37168173 -23 20 C-27.85107368 17.22675161 -32.93433394 17.84212954 -38.33203125 18.0234375 C-39.32377853 18.04846344 -40.31552582 18.07348938 -41.33732605 18.09927368 C-44.49607618 18.18125853 -47.65418093 18.27793184 -50.8125 18.375 C-52.95765617 18.4332615 -55.10283861 18.49056431 -57.24804688 18.546875 C-62.49905316 18.68680513 -67.74960633 18.83878797 -73 19 C-73.16586427 17.23473448 -73.33020421 15.46932568 -73.49389648 13.70385742 C-73.58557602 12.72076096 -73.67725555 11.73766449 -73.77171326 10.72477722 C-74.00750842 7.91038128 -74.10342538 5.13635106 -74.0625 2.3125 C-74.05347656 1.48363281 -74.04445313 0.65476562 -74.03515625 -0.19921875 C-74.01775391 -1.09060547 -74.01775391 -1.09060547 -74 -2 C-20.01574219 -14.87124665 -20.01574219 -14.87124665 0 0 Z " fill="#0C2D49" transform="translate(1073,832)"/>
<path d="M0 0 C3.96 0 7.92 0 12 0 C12 12.87 12 25.74 12 39 C16.29 37.68 20.58 36.36 25 35 C35.4394695 32.39013262 44.84026113 33.80167405 54.25 38.6875 C61.61165581 44.8779833 63.80209649 53.11817946 64.78613281 62.38452148 C65.80944972 74.89912657 66.74818348 89.17759983 62 101 C61.67128906 101.82371094 61.34257813 102.64742187 61.00390625 103.49609375 C57.62109784 110.62457236 52.57495921 114.25211399 45.30078125 117.03125 C38.25447119 119.02079637 31.34620981 119.26894831 24.0625 119.3125 C23.18182861 119.31813965 22.30115723 119.3237793 21.39379883 119.32958984 C16.06383458 119.27210554 10.91672035 118.76033003 5.64233398 117.98120117 C4.39459702 117.79829025 3.14686005 117.61537933 1.86131287 117.42692566 C0.91707962 117.28604019 -0.02715363 117.14515472 -1 117 C-1.02332969 101.89275309 -1.04097952 86.78550757 -1.05181217 71.6782465 C-1.05697498 64.66415366 -1.06401739 57.650072 -1.07543945 50.63598633 C-1.08644688 43.87331932 -1.09227619 37.11066636 -1.09487724 30.34799004 C-1.09673203 27.7614772 -1.10035367 25.17496503 -1.10573006 22.58845711 C-1.11293651 18.97961145 -1.11399111 15.37081453 -1.11352539 11.76196289 C-1.11712067 10.6808725 -1.12071594 9.5997821 -1.12442017 8.4859314 C-1.1230455 7.50851486 -1.12167084 6.53109833 -1.12025452 5.52406311 C-1.12117631 4.66956101 -1.1220981 3.81505892 -1.12304783 2.93466282 C-1 1 -1 1 0 0 Z " fill="#585858" transform="translate(957,1039)"/>
<path d="M0 0 C3.96 0 7.92 0 12 0 C12 38.28 12 76.56 12 116 C8.04 116 4.08 116 0 116 C0 114.35 0 112.7 0 111 C-1.051875 111.50660156 -1.051875 111.50660156 -2.125 112.0234375 C-12.94804828 117.11144661 -24.31938408 120.76961988 -36.3125 116.9375 C-44.71639625 113.07241691 -48.79837342 107.45572144 -52.08984375 98.96484375 C-54.25362763 91.91629453 -54.18322592 84.99191053 -54.1875 77.6875 C-54.19974609 76.59759766 -54.21199219 75.50769531 -54.22460938 74.38476562 C-54.23619794 67.96083628 -53.70395611 62.1919447 -52 56 C-51.81179688 55.1646875 -51.62359375 54.329375 -51.4296875 53.46875 C-49.40713667 46.2901189 -45.07143797 40.42283932 -38.6171875 36.58203125 C-36.4284497 35.58156859 -34.29379738 34.72435707 -32 34 C-31.40703125 33.80792969 -30.8140625 33.61585937 -30.203125 33.41796875 C-26.97640692 32.8058077 -23.77163479 32.81562179 -20.5 32.8125 C-19.1903125 32.79832031 -17.880625 32.78414062 -16.53125 32.76953125 C-10.97808036 33.05197695 -5.48469337 34.08588444 0 35 C0 23.45 0 11.9 0 0 Z " fill="#535353" transform="translate(1251,1040)"/>
<path d="M0 0 C0 9.57 0 19.14 0 29 C-9.95292839 31.90293745 -19.93193288 34.53505943 -30 37 C-31.98 37.495 -31.98 37.495 -34 38 C-34 62.09 -34 86.18 -34 111 C-43.9 111 -53.8 111 -64 111 C-64 75.03 -64 39.06 -64 2 C-54.1 2 -44.2 2 -34 2 C-33.67 5.3 -33.34 8.6 -33 12 C-31.97261719 11.46890625 -30.94523437 10.9378125 -29.88671875 10.390625 C-9.59160858 0 -9.59160858 0 0 0 Z " fill="#0F304B" transform="translate(1654,825)"/>
<path d="M0 0 C0 9.57 0 19.14 0 29 C-9.95292839 31.90293745 -19.93193288 34.53505943 -30 37 C-31.98 37.495 -31.98 37.495 -34 38 C-34 62.09 -34 86.18 -34 111 C-43.9 111 -53.8 111 -64 111 C-64 75.03 -64 39.06 -64 2 C-54.1 2 -44.2 2 -34 2 C-33.67 5.3 -33.34 8.6 -33 12 C-31.97261719 11.46890625 -30.94523437 10.9378125 -29.88671875 10.390625 C-9.59160858 0 -9.59160858 0 0 0 Z " fill="#0F304B" transform="translate(1174,825)"/>
<path d="M0 0 C7.36168174 4.7889677 9.17847732 10.42605697 11.98046875 18.83203125 C11.98046875 26.75203125 11.98046875 34.67203125 11.98046875 42.83203125 C-5.50953125 42.83203125 -22.99953125 42.83203125 -41.01953125 42.83203125 C-39.7251114 55.86664743 -39.7251114 55.86664743 -32.58203125 65.76953125 C-26.84233096 68.14940698 -21.20011265 67.98756985 -15.08203125 67.95703125 C-14.15430908 67.95509766 -13.22658691 67.95316406 -12.27075195 67.95117188 C-4.81822134 67.90474268 2.55830123 67.53058819 9.98046875 66.83203125 C9.98046875 70.13203125 9.98046875 73.43203125 9.98046875 76.83203125 C8.16853817 77.14781611 6.35588529 77.45945689 4.54296875 77.76953125 C3.02896484 78.03056641 3.02896484 78.03056641 1.484375 78.296875 C-5.86048441 79.41866512 -13.08864507 80.0335426 -20.51953125 80.08203125 C-21.30972656 80.10265625 -22.09992187 80.12328125 -22.9140625 80.14453125 C-31.80218997 80.20271866 -38.82351297 77.93835819 -45.30078125 71.76953125 C-48.02997638 68.69298401 -49.63316182 65.68975488 -51.01953125 61.83203125 C-51.31730469 61.02765625 -51.61507812 60.22328125 -51.921875 59.39453125 C-56.34200454 45.05457182 -56.05874493 25.24288048 -49.83203125 11.51953125 C-45.41355878 3.55095662 -40.02714877 -1.04219963 -31.46875 -4.28515625 C-20.35489565 -7.12969881 -9.9192806 -5.73668259 0 0 Z " fill="#555555" transform="translate(725.01953125,1078.16796875)"/>
<path d="M0 0 C9.57 0 19.14 0 29 0 C29 35.97 29 71.94 29 109 C19.43 109 9.86 109 0 109 C0 73.03 0 37.06 0 0 Z " fill="#0C2D49" transform="translate(516,827)"/>
<path d="M0 0 C0.70833984 -0.00322266 1.41667969 -0.00644531 2.14648438 -0.00976562 C7.75257607 0.04614281 12.00522447 1.0497721 17.6875 2.3125 C17.6875 20.4625 17.6875 38.6125 17.6875 57.3125 C-3.99778198 65.19805708 -3.99778198 65.19805708 -12.26171875 62.73046875 C-17.5736085 60.20703306 -20.28510357 55.69934258 -22.3125 50.3125 C-23.55597865 44.11094723 -23.56620827 37.86497373 -23.625 31.5625 C-23.65400391 30.5415625 -23.68300781 29.520625 -23.71289062 28.46875 C-23.78332878 19.92947845 -22.3377411 12.13385718 -16.9375 5.3125 C-11.28649591 1.00697307 -6.91505911 -0.15476856 0 0 Z " fill="#FCFCFC" transform="translate(1233.3125,1083.6875)"/>
<path d="M0 0 C1.2216687 0.00193359 1.2216687 0.00193359 2.46801758 0.00390625 C11.20386239 0.13826511 19.64139456 1.59715267 28.1875 3.3125 C28.1875 6.9425 28.1875 10.5725 28.1875 14.3125 C16.15080275 13.45011468 16.15080275 13.45011468 11.25 12.75 C2.77474689 11.65002034 -6.28014188 10.79308513 -13.8125 15.3125 C-16.04176269 17.05691123 -16.73611499 17.85718544 -17.2109375 20.6875 C-17.20320312 21.55375 -17.19546875 22.42 -17.1875 23.3125 C-17.19523438 24.17875 -17.20296875 25.045 -17.2109375 25.9375 C-16.98294077 28.31663401 -16.98294077 28.31663401 -15.66015625 29.99609375 C-9.91410815 34.09000117 -1.74020917 35.27398426 5.125 36.1875 C13.09235474 37.41650685 23.32730471 40.0253912 28.5625 46.625 C31.97685644 53.60216316 31.39296684 63.65225947 29.48828125 71.015625 C26.95864369 76.60857894 23.04185275 80.04343646 17.5078125 82.50390625 C1.95521717 88.06948588 -13.9854774 85.06217921 -29.8125 82.3125 C-29.4825 78.6825 -29.1525 75.0525 -28.8125 71.3125 C-27.43578125 71.456875 -26.0590625 71.60125 -24.640625 71.75 C-4.13034643 74.83632016 -4.13034643 74.83632016 15.1875 69.3125 C16.76365636 66.35780933 17.51056821 63.65121571 17.625 60.3125 C17.66496094 59.673125 17.70492187 59.03375 17.74609375 58.375 C16.82451003 54.97222935 14.88565775 53.50116519 12.1875 51.3125 C9.62246391 50.3896602 7.38558706 49.73073935 4.75 49.1875 C4.05132813 49.02628662 3.35265625 48.86507324 2.6328125 48.69897461 C-0.79681916 47.91792716 -4.23572012 47.23194753 -7.69140625 46.57421875 C-16.39502639 44.89358444 -23.22894901 43.11350932 -28.8125 35.875 C-32.03465909 30.0882653 -31.69153474 23.70747771 -30.8125 17.3125 C-28.79257322 10.35385226 -24.67271952 6.9828168 -18.5078125 3.50390625 C-12.29819264 0.75907428 -6.69061661 -0.04443286 0 0 Z " fill="#555555" transform="translate(870.8125,1072.6875)"/>
<path d="M0 0 C3.96 0 7.92 0 12 0 C12.01458252 1.64403809 12.02916504 3.28807617 12.04418945 4.98193359 C12.10240293 11.11365914 12.17963478 17.24502631 12.26245117 23.37646484 C12.29559222 26.02419189 12.3236574 28.67198774 12.34643555 31.31982422 C12.38018017 35.13799206 12.43250788 38.95553543 12.48828125 42.7734375 C12.49467117 43.94675629 12.5010611 45.12007507 12.50764465 46.32894897 C12.61995435 57.71065149 12.61995435 57.71065149 17.4433136 67.69833374 C21.65071916 71.21647192 26.94707476 71.41963209 32.203125 71.33203125 C36.46653322 70.82590039 40.32062537 69.45058776 44.3359375 67.97265625 C47 67 47 67 51 66 C51 44.22 51 22.44 51 0 C54.96 0 58.92 0 63 0 C63 26.73 63 53.46 63 81 C59.04 81 55.08 81 51 81 C51 79.35 51 77.7 51 76 C49.88625 76.598125 48.7725 77.19625 47.625 77.8125 C37.5534813 82.7602216 27.21139517 84.93016859 16.05859375 82.30859375 C10.43652431 80.30609808 7.19688375 78.03751379 4 73 C0.91987452 66.50184498 -0.12893586 60.08411047 -0.11352539 52.90283203 C-0.11344986 51.72206085 -0.11337433 50.54128967 -0.11329651 49.32473755 C-0.10555458 47.43535965 -0.10555458 47.43535965 -0.09765625 45.5078125 C-0.0962413 44.20673553 -0.09482635 42.90565857 -0.09336853 41.56515503 C-0.08956844 38.12270147 -0.07975983 34.68029075 -0.06866455 31.237854 C-0.05839625 27.71847106 -0.05385934 24.19908113 -0.04882812 20.6796875 C-0.03813509 13.78643906 -0.02055886 6.89322601 0 0 Z " fill="#525252" transform="translate(1041,1075)"/>
<path d="M0 0 C6.49633951 7.0598774 6.43141718 15.06780486 6.42919922 24.23242188 C6.43355335 26.24306226 6.46987395 28.2514684 6.5078125 30.26171875 C6.53556676 39.55014363 5.49700126 46.89442866 -0.12890625 54.44921875 C-10.1211476 61.77686241 -22.28096009 59.96927452 -33.94140625 58.51171875 C-33.94140625 39.70171875 -33.94140625 20.89171875 -33.94140625 1.51171875 C-24.32928356 -2.6077624 -9.39217971 -7.20004119 0 0 Z " fill="#FDFDFD" transform="translate(1002.94140625,1087.48828125)"/>
<path d="M0 0 C4.98711288 4.702135 6.66865097 11.33973531 7.27270508 18.01245117 C7.3653784 21.20106281 7.36062157 24.37300218 7.3125 27.5625 C7.31572266 28.63435547 7.31894531 29.70621094 7.32226562 30.81054688 C7.25504122 40.80253783 6.40973879 50.18953982 -0.6875 57.8125 C-7.0703612 61.09018548 -14.06375623 61.77986633 -21 60 C-27.38333759 56.86855137 -29.68969931 52.48474233 -32.08984375 46.1015625 C-33.64293683 40.42969061 -33.32837706 34.52073242 -33.3125 28.6875 C-33.33666992 26.92889648 -33.33666992 26.92889648 -33.36132812 25.13476562 C-33.3659534 16.85090542 -32.84750668 8.48484516 -27.8125 1.5625 C-20.07746906 -5.48497263 -8.73582688 -5.96593055 0 0 Z " fill="#FCFCFD" transform="translate(746,853)"/>
<path d="M0 0 C0.76892578 0.00966797 1.53785156 0.01933594 2.33007812 0.02929688 C16.17297762 0.29797762 16.17297762 0.29797762 18.1875 2.3125 C18.28120624 4.09241924 18.30494271 5.87606739 18.30102539 7.65844727 C18.30094986 8.7995546 18.30087433 9.94066193 18.30079651 11.11634827 C18.29563522 12.3579924 18.29047394 13.59963654 18.28515625 14.87890625 C18.2837413 16.14266586 18.28232635 17.40642548 18.28086853 18.70848083 C18.27620582 22.07374889 18.2672148 25.4389499 18.25616455 28.80419922 C18.24594846 32.2359967 18.24137049 35.66780109 18.23632812 39.09960938 C18.2252738 45.83725824 18.2085171 52.57487525 18.1875 59.3125 C16.45180416 59.80927976 14.71430133 60.29974858 12.97607422 60.78759766 C12.00870331 61.06141266 11.0413324 61.33522766 10.04464722 61.61734009 C6.08993729 62.57954315 2.36349625 62.7550166 -1.6875 62.6875 C-2.40679688 62.69910156 -3.12609375 62.71070313 -3.8671875 62.72265625 C-8.35283746 62.69791921 -11.29386431 62.14032097 -14.8125 59.3125 C-16.10546875 57.515625 -16.10546875 57.515625 -17 55.5625 C-17.30292969 54.92828125 -17.60585937 54.2940625 -17.91796875 53.640625 C-20.6461891 46.54010391 -21.12129223 40.52169755 -21.0625 32.9375 C-21.07023437 31.9475 -21.07796875 30.9575 -21.0859375 29.9375 C-21.06599513 22.37934089 -20.77713946 14.50626752 -16.5 8 C-16.11199219 7.38511719 -15.72398438 6.77023437 -15.32421875 6.13671875 C-10.59365104 0.4282559 -7.07210196 -0.26279487 0 0 Z " fill="#FBFBFC" transform="translate(1236.8125,849.6875)"/>
<path d="M0 0 C3.96 0 7.92 0 12 0 C12 8.25 12 16.5 12 25 C20.58 25 29.16 25 38 25 C38 28.63 38 32.26 38 36 C29.42 36 20.84 36 12 36 C12.0740897 43.13560479 12.15700705 50.26997729 12.26245117 57.4050293 C12.29564466 59.83074498 12.32369384 62.25653686 12.34643555 64.68237305 C12.38008331 68.17529684 12.43240631 71.66752585 12.48828125 75.16015625 C12.49467117 76.23959 12.5010611 77.31902374 12.50764465 78.4311676 C12.62246641 84.35104547 13.02727871 88.81954763 16 94 C19.15314785 96.10209857 19.86103081 96.2434761 23.44921875 96.1953125 C24.29677734 96.18886719 25.14433594 96.18242188 26.01757812 96.17578125 C26.89865234 96.15902344 27.77972656 96.14226562 28.6875 96.125 C29.58017578 96.11597656 30.47285156 96.10695313 31.39257812 96.09765625 C33.59516666 96.07409915 35.79761725 96.03822844 38 96 C38.495 100.95 38.495 100.95 39 106 C30.11159273 108.53954493 18.10720097 110.27871182 9.3125 106.5 C4.70213699 103.633823 1.71190776 98.95240876 0.45021057 93.71992493 C-0.01879707 90.88643844 -0.12012559 88.25463301 -0.11352539 85.38354492 C-0.11344986 84.28278122 -0.11337433 83.18201752 -0.11329651 82.04789734 C-0.10813522 80.8706459 -0.10297394 79.69339447 -0.09765625 78.48046875 C-0.0962413 77.26676102 -0.09482635 76.05305328 -0.09336853 74.80256653 C-0.08777665 70.93085248 -0.07522558 67.05919653 -0.0625 63.1875 C-0.05748395 60.56054771 -0.05292123 57.93359451 -0.04882812 55.30664062 C-0.03780987 48.87107141 -0.02055075 42.43554555 0 36 C-3.96 36 -7.92 36 -12 36 C-12 32.37 -12 28.74 -12 25 C-8.04 25 -4.08 25 0 25 C0 16.75 0 8.5 0 0 Z " fill="#535353" transform="translate(760,1050)"/>
<path d="M0 0 C3.96 0 7.92 0 12 0 C12 33.33 12 66.66 12 101 C28.17 101 44.34 101 61 101 C61 104.63 61 108.26 61 112 C40.87 112 20.74 112 0 112 C0 75.04 0 38.08 0 0 Z " fill="#505050" transform="translate(600,1044)"/>
<path d="M0 0 C3.96 0 7.92 0 12 0 C12 38.61 12 77.22 12 117 C8.04 117 4.08 117 0 117 C0 78.39 0 39.78 0 0 Z " fill="#515151" transform="translate(1165,1039)"/>
<path d="M0 0 C3.96 0 7.92 0 12 0 C12 26.73 12 53.46 12 81 C8.04 81 4.08 81 0 81 C0 54.27 0 27.54 0 0 Z " fill="#515151" transform="translate(1128,1075)"/>
<path d="M0 0 C4.95927776 3.71945832 8.25466505 7.7615375 9.5 13.875 C9.5 17.835 9.5 21.795 9.5 25.875 C-4.36 25.875 -18.22 25.875 -32.5 25.875 C-32.5 16.12961984 -30.98046129 9.82713312 -24.51171875 2.46875 C-17.94843598 -2.73089926 -7.63471365 -2.4540151 0 0 Z " fill="#FAFAFA" transform="translate(715.5,1085.125)"/>
<path d="M0 0 C9.9 0 19.8 0 30 0 C30 9.9 30 19.8 30 30 C20.1 30 10.2 30 0 30 C0 20.1 0 10.2 0 0 Z " fill="#12324D" transform="translate(515,783)"/>
<path d="M0 0 C1.2890625 -0.00773438 2.578125 -0.01546875 3.90625 -0.0234375 C7.67398508 0.39428965 9.51759301 1.09402086 12.5 3.375 C16.37096497 8.3967924 17.13816618 12.40655248 16.88671875 18.71875 C16.17218685 23.62664585 14.34458928 26.97007089 10.3203125 30.03515625 C6.74481966 31.73376296 4.01116219 31.8085235 0.0625 31.8125 C-1.21496094 31.83183594 -2.49242187 31.85117187 -3.80859375 31.87109375 C-8.06267627 31.29938107 -10.18278634 30.0454305 -13.5 27.375 C-17.49082501 22.05389999 -17.28712807 15.75073734 -16.5 9.375 C-12.92458955 1.82691128 -8.07813362 -0.0484688 0 0 Z " fill="#FAFBFB" transform="translate(441.5,847.625)"/>
<path d="M0 0 C1.18464844 -0.00773438 2.36929688 -0.01546875 3.58984375 -0.0234375 C7.40648683 0.41446755 9.80213966 1.37079581 13.0625 3.375 C16.99537144 8.34283761 17.70473707 12.4233804 17.4453125 18.71875 C16.84275136 22.89978648 15.70084751 25.04235051 13.0625 28.375 C6.62292679 32.31854267 0.4066826 32.15036447 -6.9375 31.375 C-10.67770079 30.16473393 -12.46222824 28.00869568 -14.8125 24.875 C-16.88027319 18.44192785 -17.16815064 11.97304024 -14.25 5.8125 C-9.83010284 1.15368948 -6.40649821 -0.04173614 0 0 Z " fill="#FAFBFB" transform="translate(613.9375,847.625)"/>
<path d="M0 0 C1.575276 0.05560987 3.15084468 0.10329692 4.7265625 0.14453125 C6.4010843 0.19923078 8.07556445 0.25522096 9.75 0.3125 C10.93746826 0.34537109 10.93746826 0.34537109 12.14892578 0.37890625 C17.65532034 0.63678465 21.97954725 1.67223501 27 4 C29.34168764 7.51253146 29.49623677 8.86469356 29 13 C27.48169319 16.10891395 26.00282318 17.54499856 22.84765625 18.9765625 C11.70036298 22.56381176 -3.17925816 22.8092186 -14 18 C-16.43190826 15.41974004 -16.96092688 14.2588594 -17.5 10.6875 C-16.96687569 6.7557082 -16.3232648 4.3877745 -13.8359375 1.31640625 C-9.78534279 -1.58795634 -4.71592074 -0.38063511 0 0 Z " fill="#FAFBFB" transform="translate(613,941)"/>
<path d="M0 0 C1.575276 0.05560987 3.15084468 0.10329692 4.7265625 0.14453125 C6.4010843 0.19923078 8.07556445 0.25522096 9.75 0.3125 C10.93746826 0.34537109 10.93746826 0.34537109 12.14892578 0.37890625 C17.65532034 0.63678465 21.97954725 1.67223501 27 4 C29.34549674 7.51824511 29.57991403 8.85775694 29 13 C25.87563058 17.47826284 22.19348634 19.15322706 17.07421875 20.5 C6.99498281 22.13931665 -6.49436852 22.85394204 -15.125 16.8125 C-17.57994862 13.13007706 -17.75098764 11.35572834 -17 7 C-13.94304312 -1.61658725 -8.00499557 -0.64610551 0 0 Z " fill="#FBFBFB" transform="translate(440,941)"/>
<path d="M0 0 C4.11815499 2.14821505 5.92852142 5.05975969 7.4921875 9.31640625 C8.80810855 13.86231532 8.4921875 17.29053053 8.4921875 22.31640625 C-4.0478125 22.31640625 -16.5878125 22.31640625 -29.5078125 22.31640625 C-29.5078125 15.22456751 -28.59785331 10.58591027 -25.5078125 4.31640625 C-19.02471475 -2.1666915 -8.62323224 -2.35056954 0 0 Z " fill="#F4F6F7" transform="translate(1725.5078125,849.68359375)"/>
<path d="M0 0 C0 7.92 0 15.84 0 24 C-21.00246761 28.58235657 -21.00246761 28.58235657 -28 25.8125 C-31.60738229 22.5433098 -32.1299301 19.26626102 -32.375 14.5625 C-32.26956998 10.04407068 -31.02398103 7.4439784 -28 4 C-25.20612573 2.32345628 -22.85509445 1.68543479 -19.62890625 1.3671875 C-18.80712891 1.28339844 -17.98535156 1.19960938 -17.13867188 1.11328125 C-16.28853516 1.03464844 -15.43839844 0.95601562 -14.5625 0.875 C-13.71623047 0.78863281 -12.86996094 0.70226562 -11.99804688 0.61328125 C-7.95010296 0.21387566 -4.08364053 0 0 0 Z " fill="#F8F9F9" transform="translate(343,888)"/>
<path d="M0 0 C0 7.92 0 15.84 0 24 C-21.00246761 28.58235657 -21.00246761 28.58235657 -28 25.8125 C-31.60738229 22.5433098 -32.1299301 19.26626102 -32.375 14.5625 C-32.26956998 10.04407068 -31.02398103 7.4439784 -28 4 C-25.20612573 2.32345628 -22.85509445 1.68543479 -19.62890625 1.3671875 C-18.80712891 1.28339844 -17.98535156 1.19960938 -17.13867188 1.11328125 C-16.28853516 1.03464844 -15.43839844 0.95601562 -14.5625 0.875 C-13.71623047 0.78863281 -12.86996094 0.70226562 -11.99804688 0.61328125 C-7.95010296 0.21387566 -4.08364053 0 0 0 Z " fill="#F8F9F9" transform="translate(1534,888)"/>
<path d="M0 0 C0 7.92 0 15.84 0 24 C-21.00246761 28.58235657 -21.00246761 28.58235657 -28 25.8125 C-31.60738229 22.5433098 -32.1299301 19.26626102 -32.375 14.5625 C-32.26956998 10.04407068 -31.02398103 7.4439784 -28 4 C-25.20612573 2.32345628 -22.85509445 1.68543479 -19.62890625 1.3671875 C-18.80712891 1.28339844 -17.98535156 1.19960938 -17.13867188 1.11328125 C-16.28853516 1.03464844 -15.43839844 0.95601562 -14.5625 0.875 C-13.71623047 0.78863281 -12.86996094 0.70226562 -11.99804688 0.61328125 C-7.95010296 0.21387566 -4.08364053 0 0 0 Z " fill="#F8F9F9" transform="translate(1054,888)"/>
<path d="M0 0 C4.62 0 9.24 0 14 0 C11.86525987 7.89722882 9.65555426 15.76868384 7.375 23.625 C7.06304688 24.71167969 6.75109375 25.79835938 6.4296875 26.91796875 C6.130625 27.94792969 5.8315625 28.97789063 5.5234375 30.0390625 C5.25450684 30.96928223 4.98557617 31.89950195 4.70849609 32.85791016 C4 35 4 35 3 36 C-0.00003445 36.14177857 -2.99757235 36.04228771 -6 36 C-5.45548361 27.77852571 -4.12288195 19.87117503 -2.4375 11.8125 C-2.20353516 10.66974609 -1.96957031 9.52699219 -1.72851562 8.34960938 C-1.15767555 5.5653078 -0.5795967 2.78249193 0 0 Z " fill="#565656" transform="translate(816,1041)"/>
<path d="M0 0 C3.96 0 7.92 0 12 0 C12 4.62 12 9.24 12 14 C8.04 14 4.08 14 0 14 C0 9.38 0 4.76 0 0 Z " fill="#545454" transform="translate(1128,1043)"/>
</svg>
